<?xml version="1.0" standalone="no"?>
<!DOCTYPE svg PUBLIC "-//W3C//DTD SVG 20010904//EN"
 "http://www.w3.org/TR/2001/REC-SVG-20010904/DTD/svg10.dtd">
<svg version="1.0" xmlns="http://www.w3.org/2000/svg"
 width="1280.000000pt" height="640.000000pt" viewBox="0 0 1280.000000 640.000000"
 preserveAspectRatio="xMidYMid meet">
<g transform="translate(0.000000,640.000000) scale(0.100000,-0.100000)"
fill="#000000" stroke="none">
<path d="M12680 3666 c-27 -26 -1220 -227 -1635 -276 -417 -48 -1492 -131
-1528 -117 -12 5 -17 18 -17 50 0 55 -27 87 -74 87 -46 0 -68 -28 -74 -95 -2
-31 -8 -58 -12 -60 -11 -7 -315 -28 -950 -65 -190 -11 -415 -25 -500 -30 -612
-38 -1448 -77 -2372 -110 -405 -15 -1215 -12 -1743 5 -430 14 -582 20 -1140
45 -305 14 -869 44 -1138 60 -89 5 -243 14 -342 20 -340 20 -840 51 -984 60
-79 6 -146 8 -149 6 -9 -10 74 -132 127 -186 101 -102 62 -92 511 -134 599
-56 1469 -116 2250 -156 218 -11 565 -25 955 -40 337 -13 1342 -13 1695 0 692
25 1028 39 1435 60 105 5 280 14 390 20 110 6 274 15 365 20 91 5 242 14 335
20 345 20 918 56 1125 70 69 4 128 6 133 3 4 -2 7 -25 7 -49 0 -37 6 -51 29
-75 36 -35 64 -37 96 -4 20 20 25 34 25 78 0 34 5 59 14 66 7 6 145 22 317 36
660 55 1250 112 1456 141 250 34 679 112 1163 209 151 30 282 53 292 49 26 -8
61 14 53 34 -4 9 -17 73 -29 142 -21 118 -23 125 -47 128 -13 1 -31 -4 -39
-12z"/>
</g>
</svg>
