<?xml version="1.0" standalone="no"?>
<svg xmlns:xlink="http://www.w3.org/1999/xlink" id="wave" style="transform:rotate(180deg); transition: 0.3s" viewBox="0 0 1440 190" version="1.1" xmlns="http://www.w3.org/2000/svg"><defs><linearGradient id="sw-gradient-0" x1="0" x2="0" y1="1" y2="0"><stop stop-color="rgba(255, 170, 170, 1)" offset="0%"/><stop stop-color="rgba(255, 255, 255, 1)" offset="100%"/></linearGradient></defs><path style="transform:translate(0, 0px); opacity:1" fill="url(#sw-gradient-0)" d="M0,57L40,66.5C80,76,160,95,240,88.7C320,82,400,51,480,41.2C560,32,640,44,720,63.3C800,82,880,108,960,98.2C1040,89,1120,44,1200,41.2C1280,38,1360,76,1440,88.7C1520,101,1600,89,1680,85.5C1760,82,1840,89,1920,82.3C2000,76,2080,57,2160,44.3C2240,32,2320,25,2400,47.5C2480,70,2560,120,2640,120.3C2720,120,2800,70,2880,63.3C2960,57,3040,95,3120,98.2C3200,101,3280,70,3360,60.2C3440,51,3520,63,3600,79.2C3680,95,3760,114,3840,120.3C3920,127,4000,120,4080,120.3C4160,120,4240,127,4320,129.8C4400,133,4480,133,4560,117.2C4640,101,4720,70,4800,50.7C4880,32,4960,25,5040,41.2C5120,57,5200,95,5280,120.3C5360,146,5440,158,5520,152C5600,146,5680,120,5720,107.7L5760,95L5760,190L5720,190C5680,190,5600,190,5520,190C5440,190,5360,190,5280,190C5200,190,5120,190,5040,190C4960,190,4880,190,4800,190C4720,190,4640,190,4560,190C4480,190,4400,190,4320,190C4240,190,4160,190,4080,190C4000,190,3920,190,3840,190C3760,190,3680,190,3600,190C3520,190,3440,190,3360,190C3280,190,3200,190,3120,190C3040,190,2960,190,2880,190C2800,190,2720,190,2640,190C2560,190,2480,190,2400,190C2320,190,2240,190,2160,190C2080,190,2000,190,1920,190C1840,190,1760,190,1680,190C1600,190,1520,190,1440,190C1360,190,1280,190,1200,190C1120,190,1040,190,960,190C880,190,800,190,720,190C640,190,560,190,480,190C400,190,320,190,240,190C160,190,80,190,40,190L0,190Z"/><defs><linearGradient id="sw-gradient-1" x1="0" x2="0" y1="1" y2="0"><stop stop-color="rgba(255, 255, 255, 1)" offset="0%"/><stop stop-color="rgba(255, 170, 170, 1)" offset="100%"/></linearGradient></defs><path style="transform:translate(0, 50px); opacity:0.9" fill="url(#sw-gradient-1)" d="M0,0L40,15.8C80,32,160,63,240,82.3C320,101,400,108,480,117.2C560,127,640,139,720,139.3C800,139,880,127,960,120.3C1040,114,1120,114,1200,101.3C1280,89,1360,63,1440,44.3C1520,25,1600,13,1680,31.7C1760,51,1840,101,1920,129.8C2000,158,2080,165,2160,167.8C2240,171,2320,171,2400,142.5C2480,114,2560,57,2640,50.7C2720,44,2800,89,2880,95C2960,101,3040,70,3120,50.7C3200,32,3280,25,3360,19C3440,13,3520,6,3600,6.3C3680,6,3760,13,3840,41.2C3920,70,4000,120,4080,120.3C4160,120,4240,70,4320,44.3C4400,19,4480,19,4560,15.8C4640,13,4720,6,4800,9.5C4880,13,4960,25,5040,28.5C5120,32,5200,25,5280,31.7C5360,38,5440,57,5520,82.3C5600,108,5680,139,5720,155.2L5760,171L5760,190L5720,190C5680,190,5600,190,5520,190C5440,190,5360,190,5280,190C5200,190,5120,190,5040,190C4960,190,4880,190,4800,190C4720,190,4640,190,4560,190C4480,190,4400,190,4320,190C4240,190,4160,190,4080,190C4000,190,3920,190,3840,190C3760,190,3680,190,3600,190C3520,190,3440,190,3360,190C3280,190,3200,190,3120,190C3040,190,2960,190,2880,190C2800,190,2720,190,2640,190C2560,190,2480,190,2400,190C2320,190,2240,190,2160,190C2080,190,2000,190,1920,190C1840,190,1760,190,1680,190C1600,190,1520,190,1440,190C1360,190,1280,190,1200,190C1120,190,1040,190,960,190C880,190,800,190,720,190C640,190,560,190,480,190C400,190,320,190,240,190C160,190,80,190,40,190L0,190Z"/></svg>