<?xml version="1.0" standalone="no"?>
<svg xmlns:xlink="http://www.w3.org/1999/xlink" id="wave" style="transform:rotate(0deg); transition: 0.3s" viewBox="0 0 1440 350" version="1.1" xmlns="http://www.w3.org/2000/svg"><defs><linearGradient id="sw-gradient-0" x1="0" x2="0" y1="1" y2="0"><stop stop-color="rgba(255, 170, 170, 1)" offset="0%"/><stop stop-color="rgba(255, 255, 255, 1)" offset="100%"/></linearGradient></defs><path style="transform:translate(0, 0px); opacity:1" fill="url(#sw-gradient-0)" d="M0,35L40,35C80,35,160,35,240,52.5C320,70,400,105,480,140C560,175,640,210,720,221.7C800,233,880,222,960,204.2C1040,187,1120,163,1200,157.5C1280,152,1360,163,1440,157.5C1520,152,1600,128,1680,134.2C1760,140,1840,175,1920,198.3C2000,222,2080,233,2160,198.3C2240,163,2320,82,2400,93.3C2480,105,2560,210,2640,210C2720,210,2800,105,2880,105C2960,105,3040,210,3120,221.7C3200,233,3280,152,3360,140C3440,128,3520,187,3600,192.5C3680,198,3760,152,3840,140C3920,128,4000,152,4080,180.8C4160,210,4240,245,4320,233.3C4400,222,4480,163,4560,134.2C4640,105,4720,105,4800,128.3C4880,152,4960,198,5040,204.2C5120,210,5200,175,5280,151.7C5360,128,5440,117,5520,99.2C5600,82,5680,58,5720,46.7L5760,35L5760,350L5720,350C5680,350,5600,350,5520,350C5440,350,5360,350,5280,350C5200,350,5120,350,5040,350C4960,350,4880,350,4800,350C4720,350,4640,350,4560,350C4480,350,4400,350,4320,350C4240,350,4160,350,4080,350C4000,350,3920,350,3840,350C3760,350,3680,350,3600,350C3520,350,3440,350,3360,350C3280,350,3200,350,3120,350C3040,350,2960,350,2880,350C2800,350,2720,350,2640,350C2560,350,2480,350,2400,350C2320,350,2240,350,2160,350C2080,350,2000,350,1920,350C1840,350,1760,350,1680,350C1600,350,1520,350,1440,350C1360,350,1280,350,1200,350C1120,350,1040,350,960,350C880,350,800,350,720,350C640,350,560,350,480,350C400,350,320,350,240,350C160,350,80,350,40,350L0,350Z"/><defs><linearGradient id="sw-gradient-1" x1="0" x2="0" y1="1" y2="0"><stop stop-color="rgba(255, 255, 255, 1)" offset="0%"/><stop stop-color="rgba(255, 170, 170, 1)" offset="100%"/></linearGradient></defs><path style="transform:translate(0, 50px); opacity:0.9" fill="url(#sw-gradient-1)" d="M0,280L40,250.8C80,222,160,163,240,151.7C320,140,400,175,480,210C560,245,640,280,720,291.7C800,303,880,292,960,239.2C1040,187,1120,93,1200,87.5C1280,82,1360,163,1440,186.7C1520,210,1600,175,1680,134.2C1760,93,1840,47,1920,35C2000,23,2080,47,2160,87.5C2240,128,2320,187,2400,210C2480,233,2560,222,2640,233.3C2720,245,2800,280,2880,291.7C2960,303,3040,292,3120,245C3200,198,3280,117,3360,116.7C3440,117,3520,198,3600,192.5C3680,187,3760,93,3840,58.3C3920,23,4000,47,4080,58.3C4160,70,4240,70,4320,93.3C4400,117,4480,163,4560,157.5C4640,152,4720,93,4800,110.8C4880,128,4960,222,5040,256.7C5120,292,5200,268,5280,256.7C5360,245,5440,245,5520,215.8C5600,187,5680,128,5720,99.2L5760,70L5760,350L5720,350C5680,350,5600,350,5520,350C5440,350,5360,350,5280,350C5200,350,5120,350,5040,350C4960,350,4880,350,4800,350C4720,350,4640,350,4560,350C4480,350,4400,350,4320,350C4240,350,4160,350,4080,350C4000,350,3920,350,3840,350C3760,350,3680,350,3600,350C3520,350,3440,350,3360,350C3280,350,3200,350,3120,350C3040,350,2960,350,2880,350C2800,350,2720,350,2640,350C2560,350,2480,350,2400,350C2320,350,2240,350,2160,350C2080,350,2000,350,1920,350C1840,350,1760,350,1680,350C1600,350,1520,350,1440,350C1360,350,1280,350,1200,350C1120,350,1040,350,960,350C880,350,800,350,720,350C640,350,560,350,480,350C400,350,320,350,240,350C160,350,80,350,40,350L0,350Z"/></svg>